<?xml version="1.0" encoding="UTF-8" standalone="no"?>
<svg xmlns="http://www.w3.org/2000/svg" xmlns:xlink="http://www.w3.org/1999/xlink" version="1.1" viewBox="0 0 1260 489" preserveAspectRatio="xMidYMid meet">
   <switch
     id="switch4"><g
       id="g6"
       ><g
         id="logo-black"><g
           id="test-tube_1_"><path
             d="m 753.6,412.9 0,0 c -5,0 -9.9,-0.9 -14.6,-2.7 -19.7,-7.5 -30.1,-28.9 -24.7,-48.7 l -0.2,-0.1 1.3,-3.4 100.1,-260 c 1.5,-3.8 0.8,-13 0.1,-18.1 -0.2,-1.2 -0.2,-2.3 0.1,-3.4 l 0.1,-0.2 c 0.1,-0.2 0.1,-0.4 0.2,-0.6 1.6,-4.2 6.5,-6.3 14.5,-6.3 9.6,0 22.9,3 36.5,8.2 11.4,4.4 21.8,9.9 29.1,15.4 8.6,6.5 12,12.3 10.1,17.3 -0.1,0.2 -0.2,0.4 -0.3,0.6 l -0.1,0.2 c -0.5,1 -1.2,1.8 -2.1,2.5 -4.4,3.9 -10.9,10.5 -12,13.5 l -101.3,263.6 -0.2,-0.1 c -7.1,13.6 -21,22.3 -36.6,22.3 z m -31.3,-53.2 -0.3,0.7 c -6.4,17.2 2.3,36.6 19.5,43.2 3.9,1.5 7.9,2.2 12,2.2 13.9,0 26.2,-8.3 31.3,-21.3 l 0.4,-0.9 99.6,-258.9 c 2.1,-5.6 12,-14.5 14,-16.3 l 0.2,-0.2 c 0.2,-0.1 0.3,-0.2 0.3,-0.3 l 0.1,-0.1 c 0.1,-0.7 -0.8,-3.8 -7.8,-9.2 -6.7,-5.1 -16.4,-10.2 -27.3,-14.4 -12.6,-4.9 -25.4,-7.8 -34,-7.8 -5.7,0 -7.6,1.2 -7.9,1.8 l 0,0.1 c 0,0.1 0,0.2 0,0.4 l 0,0.1 c 0.2,1.5 2.1,14.8 -0.5,21.7 l -99.6,259.2 z"
             id="tube_1_" /><path
             d="m 850.4,195 c 0,0 -13.8,15.9 -26.4,21.6 -12.6,5.7 -21.9,4.2 -33.2,10.8 -11.3,6.6 -17,15.8 -17,15.8 l -46,119.7 c -5,13.5 2.4,29.3 16.1,34.6 13.7,5.3 29.2,-1.7 34.5,-15.1 l 0,0 72,-187.4 z m -46.3,69.1 c 2.2,-1 4.8,0 5.7,2.2 1,2.2 0,4.8 -2.2,5.7 -2.2,1 -4.8,0 -5.7,-2.2 -1.1,-2.2 0,-4.8 2.2,-5.7 z m -18.5,-19.7 c 1.5,-0.6 3.2,0 3.8,1.5 0.6,1.5 0,3.2 -1.5,3.8 -1.5,0.6 -3.2,0 -3.8,-1.5 -0.6,-1.5 0.1,-3.2 1.5,-3.8 z m -20.3,67.7 c -2.2,1 -4.8,0 -5.7,-2.2 -1,-2.2 0,-4.8 2.2,-5.7 2.2,-1 4.8,0 5.7,2.2 1.1,2.2 0.1,4.7 -2.2,5.7 z m 4.1,-15.7 c -1.8,-4.1 0,-8.9 4.1,-10.8 4.1,-1.8 8.9,0 10.8,4.1 1.8,4.1 0,8.9 -4.1,10.8 -4.2,1.8 -9,0 -10.8,-4.1 z m 10.4,41.5 c 1.5,-0.6 3.2,0 3.8,1.5 0.6,1.5 0,3.2 -1.5,3.8 -1.5,0.6 -3.2,0 -3.8,-1.5 -0.6,-1.4 0,-3.1 1.5,-3.8 z"
             id="liquid_1_" /><ellipse
             ry="27.799999"
             rx="7.3000002"
             cy="95.699997"
             cx="859.79999"
             transform="matrix(0.359,-0.9333,0.9333,0.359,461.7702,863.8233)"
             id="top_1_" /></g><path
           d="m 250.5,228.2 c 4.4,3.5 12.4,1.5 17.8,-4.4 5.6,-6.2 6.5,-14.1 2.1,-17.7 -4.4,-3.5 -12.4,-1.5 -17.8,4.7 -5.7,6.3 -6.7,13.9 -2.1,17.4 z m -13.1,11.5 c -1.2,0 -3.2,2.1 -1.5,2.9 2.4,0.9 3.5,2.9 3.5,5.9 -2.1,12.1 -17.1,26 -23.1,30.7 -1.5,1.5 0.6,4.7 2.1,3.5 3.2,-2.6 10,-7.9 15.6,-15 -9.1,20.4 -26.9,46.6 -33.7,55.8 -26.6,36.9 -67,70.8 -94.8,70.8 -22.2,0 -41,-15 -45.1,-37.2 -0.3,-2.4 -3.5,-2.9 -2.9,0.3 5,30.4 28.4,42.1 56.7,42.1 31,0 67.4,-22.5 87.4,-45.4 32.4,-37.2 53.5,-79.9 47.8,-104.1 -2.2,-9.1 -8.5,-10.6 -12,-10.3 z m 199.2,80.9 c 8.5,-2.1 15.6,-6.8 15.6,-14.2 0,-0.7 -1.5,-0.7 -1.5,0 0,4.4 -5,8 -10.6,8.9 -13.2,2.1 -39.5,-13.5 -51.9,-29.5 13.2,5 40.4,-2.3 53.2,-11.4 11.8,-8.5 16.5,-18 17.5,-25.7 1.5,-12.6 -12.4,-20.1 -31.6,-12.6 -12.4,5 -27.2,15.9 -42.5,36.3 16.2,-26.9 48.1,-70.5 79.4,-98.5 38.1,-33.9 60.2,-27.4 26,8.5 -14.1,14.7 -40.7,33.9 -59.1,42.2 -5.6,2.4 -2.9,5.6 1.2,3.8 19.5,-8.5 45.4,-26.3 61.1,-41 46.3,-44.5 7.7,-78.1 -43.7,-31 -34.8,32.2 -57.6,65.8 -77.3,109.4 -6.8,8.2 -11.8,15 -18.1,20.4 -0.7,0.6 -1.3,1.3 -1.8,1.9 -17,14.6 -43.8,34.3 -60.5,34.6 -11.8,0.3 -16.8,-8.5 -14.7,-20.1 3.2,-18 21.9,-39.2 37.8,-46.6 20.7,-9.4 32.8,8.8 5.6,23.6 -10.3,5.3 -22.8,8.2 -27.8,8.2 -5.9,0 -5.3,2.4 -0.3,2.6 8.2,0.3 21.6,-3.2 30.4,-7.4 27.8,-13.2 29.5,-38 -0.6,-38.9 -32.8,-1.2 -72,26.9 -71.7,62 0.3,15.9 13,24.5 30.4,24.5 29,-0.3 54.9,-22.4 76,-41.7 3,-2.5 6,-5.3 8.9,-8.2 -7.4,18.9 -11.2,36.3 -9.4,49.2 1.2,9.4 6.5,13.8 10.6,17.4 0.9,0.6 2.6,0 1.5,-1.8 -6.2,-7.4 -4.4,-29.3 4.1,-50.4 7.1,14 34.8,32 63.8,25.5 z m -34.8,-61.5 c 33.9,-30.4 47.2,-3.2 25.7,13.2 -11.2,8.5 -33.4,15 -40.4,10.9 l -1.5,-0.9 c -0.9,-1.5 -1.8,-2.9 -2.4,-4.4 5.6,-6.8 12.1,-12.9 18.6,-18.8 z m 188.3,-34.4 c 13.5,1.5 7.9,-15 -5.9,-10.9 -6.2,1.8 -12.1,13.5 -16.5,23.9 -13.5,20.4 -36.3,48 -52.3,62.5 -14.1,12.1 -27.2,15.3 -11.2,-7.4 6.5,-9.1 14.7,-18.9 19.5,-28.6 11.2,-24.5 -12.7,-35.4 -31.9,-20.7 -11.2,8.5 -26.3,26.3 -38.1,36 -3.2,2.6 -2.4,6.5 0.9,3.8 9.4,-7.6 26,-25.1 40.1,-35.4 11.8,-9.1 16.5,-3.2 9.7,4.4 -9.4,10.9 -26,29.8 -30.1,41.9 -5.9,18 1.2,26 12.9,26 16.2,0 40.4,-25.4 56.7,-45.4 5.3,-6.8 11.2,-14.7 16.2,-22.4 -14.1,27.4 -28.9,55.2 -47.2,80.2 -26,35.4 -58.5,62 -89.2,62 -22.2,0 -41.3,-15 -45.4,-37.2 -0.3,-2.4 -3.2,-2.9 -2.9,0.3 5,30.4 28.4,42.1 56.7,42.1 31,0 60.8,-18 81.7,-40.1 C 556,315.1 561.1,265 574,237 c 6.1,-12.3 11.7,-12.9 16.1,-12.3 z m 171.6,-43.1 c 6.2,-10.6 5.9,-18.9 -8.5,-18.9 -10.9,0.3 -30.7,7.9 -39.8,15 -2.1,2.1 -1.2,3.2 1.5,2.1 1.8,-0.6 3.8,-1.8 5.9,-2.6 10.3,-5.6 6.2,6.2 3.8,10.6 -12.4,21.6 -34.2,51.9 -45.7,67 -5.5,7.4 -11.7,14.8 -17.8,21.1 -11.1,10.5 -33,29.2 -49.5,35.4 -53.8,20.1 14.7,-71.4 20.4,-78.7 12.7,-15.9 41,-43.6 49.5,-57.5 6.2,-10.6 5.9,-18.9 -8.5,-18.9 -10.9,0.3 -30.7,7.9 -39.8,15 -2.1,2.1 -1.2,3.2 1.5,2.1 1.8,-0.6 3.8,-1.8 5.9,-2.6 10.3,-5.6 6.2,6.2 3.8,10.6 -12.4,21.6 -34.2,51.9 -45.7,67 -9.4,12.6 -21,25.4 -29.8,32.4 -3.5,2.9 -1.5,5.6 2.1,3.2 3.2,-2.1 7.9,-6.8 13.2,-12.4 -9.7,19.5 -17.8,46.9 7.9,50.1 21.9,3 47.9,-19.4 64.7,-35.9 1.8,-1.8 3.9,-3.8 6,-6 0.5,-0.5 1,-1 1.5,-1.5 -9.7,19.5 -17.7,46.8 8,50 28.1,3.8 62.9,-33.9 76.4,-47.7 2.6,-2.6 1.8,-7.1 -2.6,-2.6 -7.9,8.2 -34.8,32.7 -54.4,40.1 -53.8,20.1 14.7,-71.4 20.4,-78.7 12.7,-16 41.1,-43.7 49.6,-57.7 z"
           id="jekyll-text" /></g><g
         style="display:none"
         display="none"
         id="logo-black-red"><g
           style="display:inline"
           display="inline"
           id="test-tube_2_"><path
             d="m 753.6,412.9 0,0 c -5,0 -9.9,-0.9 -14.6,-2.7 -19.7,-7.5 -30.1,-28.9 -24.7,-48.7 l -0.2,-0.1 1.3,-3.4 100.1,-260 c 1.5,-3.8 0.8,-13 0.1,-18.1 -0.2,-1.2 -0.2,-2.3 0.1,-3.4 l 0.1,-0.2 c 0.1,-0.2 0.1,-0.4 0.2,-0.6 1.6,-4.2 6.5,-6.3 14.5,-6.3 9.6,0 22.9,3 36.5,8.2 11.4,4.4 21.8,9.9 29.1,15.4 8.6,6.5 12,12.3 10.1,17.3 -0.1,0.2 -0.2,0.4 -0.3,0.6 l -0.1,0.2 c -0.5,1 -1.2,1.8 -2.1,2.5 -4.4,3.9 -10.9,10.5 -12,13.5 l -101.3,263.6 -0.2,-0.1 c -7.1,13.6 -21,22.3 -36.6,22.3 z m -31.3,-53.2 -0.3,0.7 c -6.4,17.2 2.3,36.6 19.5,43.2 3.9,1.5 7.9,2.2 12,2.2 13.9,0 26.2,-8.3 31.3,-21.3 l 0.4,-0.9 99.6,-258.9 c 2.1,-5.6 12,-14.5 14,-16.3 l 0.2,-0.2 c 0.2,-0.1 0.3,-0.2 0.3,-0.3 l 0.1,-0.1 c 0.1,-0.7 -0.8,-3.8 -7.8,-9.2 -6.7,-5.1 -16.4,-10.2 -27.3,-14.4 -12.6,-4.9 -25.4,-7.8 -34,-7.8 -5.7,0 -7.6,1.2 -7.9,1.8 l 0,0.1 c 0,0.1 0,0.2 0,0.4 l 0,0.1 c 0.2,1.5 2.1,14.8 -0.5,21.7 l -99.6,259.2 z"
             id="tube_2_" /><path
             style="fill:#cc0000"
             d="m 850.4,195 c 0,0 -13.8,15.9 -26.4,21.6 -12.6,5.7 -21.9,4.2 -33.2,10.8 -11.3,6.6 -17,15.8 -17,15.8 l -46,119.7 c -5,13.5 2.4,29.3 16.1,34.6 13.7,5.3 29.2,-1.7 34.5,-15.1 l 0,0 72,-187.4 z m -46.3,69.1 c 2.2,-1 4.8,0 5.7,2.2 1,2.2 0,4.8 -2.2,5.7 -2.2,1 -4.8,0 -5.7,-2.2 -1.1,-2.2 0,-4.8 2.2,-5.7 z m -18.5,-19.7 c 1.5,-0.6 3.2,0 3.8,1.5 0.6,1.5 0,3.2 -1.5,3.8 -1.5,0.6 -3.2,0 -3.8,-1.5 -0.6,-1.5 0.1,-3.2 1.5,-3.8 z m -20.3,67.7 c -2.2,1 -4.8,0 -5.7,-2.2 -1,-2.2 0,-4.8 2.2,-5.7 2.2,-1 4.8,0 5.7,2.2 1.1,2.2 0.1,4.7 -2.2,5.7 z m 4.1,-15.7 c -1.8,-4.1 0,-8.9 4.1,-10.8 4.1,-1.8 8.9,0 10.8,4.1 1.8,4.1 0,8.9 -4.1,10.8 -4.2,1.8 -9,0 -10.8,-4.1 z m 10.4,41.5 c 1.5,-0.6 3.2,0 3.8,1.5 0.6,1.5 0,3.2 -1.5,3.8 -1.5,0.6 -3.2,0 -3.8,-1.5 -0.6,-1.4 0,-3.1 1.5,-3.8 z"
             id="liquid_2_" /><ellipse
             ry="27.799999"
             rx="7.3000002"
             cy="95.699997"
             cx="859.79999"
             transform="matrix(0.359,-0.9333,0.9333,0.359,461.7702,863.8233)"
             id="top_2_" /></g><path
           style="display:inline"
           d="m 250.5,228.2 c 4.4,3.5 12.4,1.5 17.8,-4.4 5.6,-6.2 6.5,-14.1 2.1,-17.7 -4.4,-3.5 -12.4,-1.5 -17.8,4.7 -5.7,6.3 -6.7,13.9 -2.1,17.4 z m -13.1,11.5 c -1.2,0 -3.2,2.1 -1.5,2.9 2.4,0.9 3.5,2.9 3.5,5.9 -2.1,12.1 -17.1,26 -23.1,30.7 -1.5,1.5 0.6,4.7 2.1,3.5 3.2,-2.6 10,-7.9 15.6,-15 -9.1,20.4 -26.9,46.6 -33.7,55.8 -26.6,36.9 -67,70.8 -94.8,70.8 -22.2,0 -41,-15 -45.1,-37.2 -0.3,-2.4 -3.5,-2.9 -2.9,0.3 5,30.4 28.4,42.1 56.7,42.1 31,0 67.4,-22.5 87.4,-45.4 32.4,-37.2 53.5,-79.9 47.8,-104.1 -2.2,-9.1 -8.5,-10.6 -12,-10.3 z m 199.2,80.9 c 8.5,-2.1 15.6,-6.8 15.6,-14.2 0,-0.7 -1.5,-0.7 -1.5,0 0,4.4 -5,8 -10.6,8.9 -13.2,2.1 -39.5,-13.5 -51.9,-29.5 13.2,5 40.4,-2.3 53.2,-11.4 11.8,-8.5 16.5,-18 17.5,-25.7 1.5,-12.6 -12.4,-20.1 -31.6,-12.6 -12.4,5 -27.2,15.9 -42.5,36.3 16.2,-26.9 48.1,-70.5 79.4,-98.5 38.1,-33.9 60.2,-27.4 26,8.5 -14.1,14.7 -40.7,33.9 -59.1,42.2 -5.6,2.4 -2.9,5.6 1.2,3.8 19.5,-8.5 45.4,-26.3 61.1,-41 46.3,-44.5 7.7,-78.1 -43.7,-31 -34.8,32.2 -57.6,65.8 -77.3,109.4 -6.8,8.2 -11.8,15 -18.1,20.4 -0.7,0.6 -1.3,1.3 -1.8,1.9 -17,14.6 -43.8,34.3 -60.5,34.6 -11.8,0.3 -16.8,-8.5 -14.7,-20.1 3.2,-18 21.9,-39.2 37.8,-46.6 20.7,-9.4 32.8,8.8 5.6,23.6 -10.3,5.3 -22.8,8.2 -27.8,8.2 -5.9,0 -5.3,2.4 -0.3,2.6 8.2,0.3 21.6,-3.2 30.4,-7.4 27.8,-13.2 29.5,-38 -0.6,-38.9 -32.8,-1.2 -72,26.9 -71.7,62 0.3,15.9 13,24.5 30.4,24.5 29,-0.3 54.9,-22.4 76,-41.7 3,-2.5 6,-5.3 8.9,-8.2 -7.4,18.9 -11.2,36.3 -9.4,49.2 1.2,9.4 6.5,13.8 10.6,17.4 0.9,0.6 2.6,0 1.5,-1.8 -6.2,-7.4 -4.4,-29.3 4.1,-50.4 7.1,14 34.8,32 63.8,25.5 z m -34.8,-61.5 c 33.9,-30.4 47.2,-3.2 25.7,13.2 -11.2,8.5 -33.4,15 -40.4,10.9 l -1.5,-0.9 c -0.9,-1.5 -1.8,-2.9 -2.4,-4.4 5.6,-6.8 12.1,-12.9 18.6,-18.8 z m 188.3,-34.4 c 13.5,1.5 7.9,-15 -5.9,-10.9 -6.2,1.8 -12.1,13.5 -16.5,23.9 -13.5,20.4 -36.3,48 -52.3,62.5 -14.1,12.1 -27.2,15.3 -11.2,-7.4 6.5,-9.1 14.7,-18.9 19.5,-28.6 11.2,-24.5 -12.7,-35.4 -31.9,-20.7 -11.2,8.5 -26.3,26.3 -38.1,36 -3.2,2.6 -2.4,6.5 0.9,3.8 9.4,-7.6 26,-25.1 40.1,-35.4 11.8,-9.1 16.5,-3.2 9.7,4.4 -9.4,10.9 -26,29.8 -30.1,41.9 -5.9,18 1.2,26 12.9,26 16.2,0 40.4,-25.4 56.7,-45.4 5.3,-6.8 11.2,-14.7 16.2,-22.4 -14.1,27.4 -28.9,55.2 -47.2,80.2 -26,35.4 -58.5,62 -89.2,62 -22.2,0 -41.3,-15 -45.4,-37.2 -0.3,-2.4 -3.2,-2.9 -2.9,0.3 5,30.4 28.4,42.1 56.7,42.1 31,0 60.8,-18 81.7,-40.1 C 556,315.1 561.1,265 574,237 c 6.1,-12.3 11.7,-12.9 16.1,-12.3 z m 171.6,-43.1 c 6.2,-10.6 5.9,-18.9 -8.5,-18.9 -10.9,0.3 -30.7,7.9 -39.8,15 -2.1,2.1 -1.2,3.2 1.5,2.1 1.8,-0.6 3.8,-1.8 5.9,-2.6 10.3,-5.6 6.2,6.2 3.8,10.6 -12.4,21.6 -34.2,51.9 -45.7,67 -5.5,7.4 -11.7,14.8 -17.8,21.1 -11.1,10.5 -33,29.2 -49.5,35.4 -53.8,20.1 14.7,-71.4 20.4,-78.7 12.7,-15.9 41,-43.6 49.5,-57.5 6.2,-10.6 5.9,-18.9 -8.5,-18.9 -10.9,0.3 -30.7,7.9 -39.8,15 -2.1,2.1 -1.2,3.2 1.5,2.1 1.8,-0.6 3.8,-1.8 5.9,-2.6 10.3,-5.6 6.2,6.2 3.8,10.6 -12.4,21.6 -34.2,51.9 -45.7,67 -9.4,12.6 -21,25.4 -29.8,32.4 -3.5,2.9 -1.5,5.6 2.1,3.2 3.2,-2.1 7.9,-6.8 13.2,-12.4 -9.7,19.5 -17.8,46.9 7.9,50.1 21.9,3 47.9,-19.4 64.7,-35.9 1.8,-1.8 3.9,-3.8 6,-6 0.5,-0.5 1,-1 1.5,-1.5 -9.7,19.5 -17.7,46.8 8,50 28.1,3.8 62.9,-33.9 76.4,-47.7 2.6,-2.6 1.8,-7.1 -2.6,-2.6 -7.9,8.2 -34.8,32.7 -54.4,40.1 -53.8,20.1 14.7,-71.4 20.4,-78.7 12.7,-16 41.1,-43.7 49.6,-57.7 z"
           display="inline"
           id="jekyll-text_1_" /></g></g></switch><g
     id="text3352"
     style="font-style:normal;font-weight:normal;font-size:40px;line-height:125%;font-family:sans-serif;letter-spacing:0px;word-spacing:0px;fill:#ff0000;fill-opacity:1;stroke:none;stroke-width:1px;stroke-linecap:butt;stroke-linejoin:miter;stroke-opacity:1"><path
       id="path3387"
       style="font-style:normal;font-variant:normal;font-weight:bold;font-stretch:normal;font-size:120px;font-family:monospace;-inkscape-font-specification:'monospace Bold';fill:#000000"
       d="m 932.05511,340.14789 0,11.13281 -72.24609,0 0,-11.13281 72.24609,0 z" /><path
       id="path3389"
       style="font-style:normal;font-variant:normal;font-weight:bold;font-stretch:normal;font-size:120px;font-family:monospace;-inkscape-font-specification:'monospace Bold';fill:#000000"
       d="m 944.94574,257.35492 33.98437,0 0,52.44141 21.32809,0 0,13.18359 -59.88277,0 0,-13.18359 21.38672,0 0,-39.25782 -16.81641,0 0,-13.18359 z m 16.81641,-31.93359 17.16796,0 0,20.03906 -17.16796,0 0,-20.03906 z" /><path
       id="path3391"
       style="font-style:normal;font-variant:normal;font-weight:bold;font-stretch:normal;font-size:120px;font-family:monospace;-inkscape-font-specification:'monospace Bold';fill:#000000"
       d="m 1015.1996,307.74554 19.336,0 0,-56.77734 -17.9883,4.45313 0,-15.58594 18.1055,-4.33594 16.6992,0 0,72.24609 19.3359,0 0,15.23438 -55.4883,0 0,-15.23438 z" /><path
       id="path3393"
       style="font-style:normal;font-variant:normal;font-weight:bold;font-stretch:normal;font-size:120px;font-family:monospace;-inkscape-font-specification:'monospace Bold';fill:#000000"
       d="m 1112.4653,283.95648 q -5.8008,0 -9.375,3.69141 -3.5742,3.63281 -3.5742,9.66797 0,6.03515 3.5742,9.72656 3.5742,3.69141 9.375,3.69141 5.8008,0 9.375,-3.75 3.6328,-3.75 3.6328,-9.66797 0,-6.03516 -3.5742,-9.66797 -3.5743,-3.69141 -9.4336,-3.69141 z m -12.8321,-7.32422 q -6.6211,-2.28515 -10.0781,-7.14843 -3.457,-4.92188 -3.457,-12.01172 0,-10.89844 7.0898,-17.22657 7.0899,-6.32812 19.2774,-6.32812 12.2461,0 19.3359,6.32812 7.0899,6.32813 7.0899,17.22657 0,7.03125 -3.3985,11.95312 -3.3984,4.86328 -9.9023,7.20703 7.2656,2.22657 11.3672,7.96875 4.1015,5.74219 4.1015,13.76953 0,12.59766 -7.4414,19.45313 -7.4414,6.85547 -21.1523,6.85547 -13.6524,0 -21.0938,-6.85547 -7.4414,-6.85547 -7.4414,-19.45313 0,-8.08593 4.1602,-13.82812 4.1601,-5.74219 11.5429,-7.91016 z m 1.8164,-17.7539 q 0,5.15625 2.9297,8.20312 2.9883,2.98828 8.086,2.98828 5.1562,0 8.0859,-2.98828 2.9883,-3.04687 2.9883,-8.20312 0,-5.09766 -2.9883,-8.02735 -2.9297,-2.98828 -8.0859,-2.98828 -5.0391,0 -8.0274,2.98828 -2.9883,2.98828 -2.9883,8.02735 z" /><path
       id="path3395"
       style="font-style:normal;font-variant:normal;font-weight:bold;font-stretch:normal;font-size:120px;font-family:monospace;-inkscape-font-specification:'monospace Bold';fill:#000000"
       d="m 1211.3129,280.38226 0,42.59766 -17.0508,0 0,-39.96094 q 0,-7.14844 -2.0507,-10.19531 -1.9922,-3.10547 -6.5625,-3.10547 -4.6289,0 -7.3243,4.16016 -2.6367,4.16015 -2.6367,11.54297 l 0,37.55859 -17.0508,0 0,-65.625 17.0508,0 0,9.84375 q 1.8164,-5.44922 6.211,-8.4375 4.3945,-2.98828 10.6054,-2.98828 9.3164,0 14.0625,6.21094 4.7461,6.15234 4.7461,18.39843 z" /></g><text
     id="text3382"
     y="300.85931"
     x="-77.185928"
     style="font-style:normal;font-weight:normal;font-size:40px;line-height:125%;font-family:sans-serif;letter-spacing:0px;word-spacing:0px;fill:#000000;fill-opacity:1;stroke:none;stroke-width:1px;stroke-linecap:butt;stroke-linejoin:miter;stroke-opacity:1"
     xml:space="preserve"><tspan
       y="300.85931"
       x="-77.185928"
       id="tspan3384" /></text>
</svg>
